<svg width="56" height="56" viewBox="0 0 56 56" fill="none" xmlns="http://www.w3.org/2000/svg">
<g clip-path="url(#clip0_45_1199)">
<mask id="mask0_45_1199" style="mask-type:luminance" maskUnits="userSpaceOnUse" x="0" y="0" width="56" height="56">
<path d="M56 0H0V56H56V0Z" fill="white"/>
<path d="M24.0514 28.0001C33.9643 28.0001 42.0003 36.0361 42.0003 45.949C42.0003 48.9226 39.5895 51.3334 36.6159 51.3334H10.0514C7.07772 51.3334 4.66709 48.9226 4.66699 45.949C4.66699 36.0361 12.7031 28.0001 22.6159 28.0001H24.0514ZM23.3337 4.66675C28.4882 4.66675 32.667 8.84542 32.667 14.0001C32.667 19.1547 28.4882 23.3334 23.3337 23.3334C18.179 23.3334 14.0003 19.1547 14.0003 14.0001C14.0003 8.84542 18.179 4.66675 23.3337 4.66675Z" fill="black"/>
</mask>
<g mask="url(#mask0_45_1199)">
<path d="M37.1969 23.3333C46.293 23.3335 53.6668 30.7073 53.667 39.8033C53.667 42.3049 51.6386 44.3333 49.1371 44.3333H23.1969C20.6954 44.3333 18.667 42.3049 18.667 39.8033C18.6673 30.7073 26.041 23.3335 35.1371 23.3333H37.1969ZM36.167 2.33325C40.6773 2.33325 44.3337 5.98959 44.3337 10.4999C44.3337 15.0103 40.6773 18.6666 36.167 18.6666C31.6567 18.6666 28.0003 15.0103 28.0003 10.4999C28.0003 5.98959 31.6567 2.33325 36.167 2.33325Z" fill="url(#paint0_linear_45_1199)"/>
</g>
<mask id="mask1_45_1199" style="mask-type:luminance" maskUnits="userSpaceOnUse" x="4" y="4" width="39" height="48">
<path d="M24.0514 28.0001C33.9643 28.0001 42.0003 36.0361 42.0003 45.949C42.0003 48.9226 39.5895 51.3334 36.6159 51.3334H10.0514C7.07772 51.3334 4.66709 48.9226 4.66699 45.949C4.66699 36.0361 12.7031 28.0001 22.6159 28.0001H24.0514ZM23.3337 4.66675C28.4882 4.66675 32.667 8.84542 32.667 14.0001C32.667 19.1547 28.4882 23.3334 23.3337 23.3334C18.179 23.3334 14.0003 19.1547 14.0003 14.0001C14.0003 8.84542 18.179 4.66675 23.3337 4.66675Z" fill="white"/>
</mask>
<g mask="url(#mask1_45_1199)">
<g filter="url(#filter0_f_45_1199)">
<path d="M37.1969 23.3334C46.293 23.3337 53.6668 30.7075 53.667 39.8035C53.667 42.3051 51.6386 44.3334 49.1371 44.3334H23.1969C20.6954 44.3334 18.667 42.3051 18.667 39.8035C18.6673 30.7075 26.041 23.3337 35.1371 23.3334H37.1969ZM36.167 2.33344C40.6773 2.33344 44.3337 5.98977 44.3337 10.5001C44.3337 15.0104 40.6773 18.6668 36.167 18.6668C31.6567 18.6668 28.0003 15.0104 28.0003 10.5001C28.0003 5.98977 31.6567 2.33344 36.167 2.33344Z" fill="url(#paint1_linear_45_1199)"/>
</g>
</g>
<path d="M24.0514 28.0001C33.9643 28.0001 42.0003 36.0361 42.0003 45.949C42.0003 48.9226 39.5895 51.3334 36.6159 51.3334H10.0514C7.07772 51.3334 4.66709 48.9226 4.66699 45.949C4.66699 36.0361 12.7031 28.0001 22.6159 28.0001H24.0514ZM23.3337 4.66675C28.4882 4.66675 32.667 8.84542 32.667 14.0001C32.667 19.1547 28.4882 23.3334 23.3337 23.3334C18.179 23.3334 14.0003 19.1547 14.0003 14.0001C14.0003 8.84542 18.179 4.66675 23.3337 4.66675Z" fill="url(#paint2_linear_45_1199)"/>
<path d="M30.9167 14C30.9167 9.81185 27.5214 6.41669 23.3333 6.41669C19.1452 6.41669 15.75 9.81185 15.75 14C15.75 18.1882 19.1452 21.5834 23.3333 21.5834V23.3334C18.1787 23.3334 14 19.1547 14 14C14 8.84536 18.1787 4.66669 23.3333 4.66669C28.4879 4.66669 32.6667 8.84536 32.6667 14C32.6667 19.1547 28.4879 23.3334 23.3333 23.3334V21.5834C27.5214 21.5834 30.9167 18.1882 30.9167 14Z" fill="url(#paint3_linear_45_1199)"/>
<path d="M36.6159 49.5833V51.3333H10.0514V49.5833H36.6159ZM40.2503 45.9489C40.2503 37.0027 32.9976 29.75 24.0514 29.75H22.6159C13.6696 29.75 6.41699 37.0027 6.41699 45.9489C6.41709 47.9561 8.04424 49.5833 10.0514 49.5833V51.3333C7.26388 51.3333 4.97054 49.2149 4.69434 46.5003L4.66699 45.9489C4.66699 36.3456 12.209 28.5031 21.693 28.0229L22.6159 28H24.0514C33.9643 28 42.0003 36.036 42.0003 45.9489L41.973 46.5003C41.7152 49.0338 39.7008 51.0482 37.1673 51.306L36.6159 51.3333V49.5833C38.6231 49.5833 40.2503 47.9561 40.2503 45.9489Z" fill="url(#paint4_linear_45_1199)"/>
</g>
<defs>
<filter id="filter0_f_45_1199" x="14.667" y="-1.66656" width="43" height="50" filterUnits="userSpaceOnUse" color-interpolation-filters="sRGB">
<feFlood flood-opacity="0" result="BackgroundImageFix"/>
<feBlend mode="normal" in="SourceGraphic" in2="BackgroundImageFix" result="shape"/>
<feGaussianBlur stdDeviation="2" result="effect1_foregroundBlur_45_1199"/>
</filter>
<linearGradient id="paint0_linear_45_1199" x1="36.167" y1="2.33325" x2="36.167" y2="44.3333" gradientUnits="userSpaceOnUse">
<stop stop-color="#FFC4A4"/>
<stop offset="1" stop-color="#FF6613"/>
</linearGradient>
<linearGradient id="paint1_linear_45_1199" x1="36.167" y1="2.33344" x2="36.167" y2="44.3334" gradientUnits="userSpaceOnUse">
<stop stop-color="#FFC4A4"/>
<stop offset="1" stop-color="#FF6613"/>
</linearGradient>
<linearGradient id="paint2_linear_45_1199" x1="20.9097" y1="-17.0103" x2="20.007" y2="68.4575" gradientUnits="userSpaceOnUse">
<stop/>
<stop offset="1" stop-color="white" stop-opacity="0.6"/>
</linearGradient>
<linearGradient id="paint3_linear_45_1199" x1="23.3333" y1="4.66669" x2="23.3333" y2="15.477" gradientUnits="userSpaceOnUse">
<stop stop-color="white"/>
<stop offset="1" stop-color="white" stop-opacity="0"/>
</linearGradient>
<linearGradient id="paint4_linear_45_1199" x1="23.3337" y1="28" x2="23.3337" y2="41.5123" gradientUnits="userSpaceOnUse">
<stop stop-color="white"/>
<stop offset="1" stop-color="white" stop-opacity="0"/>
</linearGradient>
<clipPath id="clip0_45_1199">
<rect width="56" height="56" fill="white"/>
</clipPath>
</defs>
</svg>
