<svg width="56" height="53" viewBox="0 0 56 53" fill="none" xmlns="http://www.w3.org/2000/svg">
<g clip-path="url(#clip0_45_1213)">
<mask id="mask0_45_1213" style="mask-type:luminance" maskUnits="userSpaceOnUse" x="0" y="0" width="56" height="53">
<path d="M56 0H0V53H56V0Z" fill="white"/>
<path d="M39.6663 26.4999C47.3983 26.4999 53.6663 32.4322 53.6663 39.7499C53.6663 47.0677 47.3983 52.9999 39.6663 52.9999C31.9344 52.9999 25.6663 47.0677 25.6663 39.7499C25.6663 32.4322 31.9344 26.4999 39.6663 26.4999ZM47.1493 34.8761C46.2382 34.0136 44.7612 34.0136 43.85 34.8761L38.4997 39.9396L36.6493 38.1886L36.4718 38.0376C35.5552 37.3302 34.2042 37.3802 33.35 38.1886C32.4386 39.051 32.4386 40.4489 33.35 41.3112L36.85 44.6237C37.7612 45.4863 39.2382 45.4863 40.1493 44.6237L47.1493 37.9987C48.0607 37.1364 48.0607 35.7385 47.1493 34.8761ZM34.4163 2.20825C37.3157 2.20825 39.6663 4.43284 39.6663 7.177C39.6663 9.92117 37.3157 12.1458 34.4163 12.1458H21.583C18.6835 12.1458 16.333 9.92117 16.333 7.177C16.333 4.43284 18.6835 2.20825 21.583 2.20825H34.4163Z" fill="black"/>
</mask>
<g mask="url(#mask0_45_1213)">
<path d="M7 20.7583C7 15.8112 7 13.3376 8.01726 11.4481C8.9121 9.78599 10.3399 8.43466 12.0961 7.58777C14.0926 6.625 16.7062 6.625 21.9333 6.625H34.0667C39.2938 6.625 41.9074 6.625 43.904 7.58777C45.6601 8.43466 47.0878 9.78599 47.9827 11.4481C49 13.3376 49 15.8112 49 20.7583V34.45C49 39.3971 49 41.8707 47.9827 43.7603C47.0878 45.4223 45.6601 46.7736 43.904 47.6205C41.9074 48.5833 39.2938 48.5833 34.0667 48.5833H21.9333C16.7062 48.5833 14.0926 48.5833 12.0961 47.6205C10.3399 46.7736 8.9121 45.4223 8.01726 43.7603C7 41.8707 7 39.3971 7 34.45V20.7583Z" fill="url(#paint0_linear_45_1213)"/>
</g>
<mask id="mask1_45_1213" style="mask-type:luminance" maskUnits="userSpaceOnUse" x="16" y="2" width="38" height="51">
<path d="M39.6663 26.4999C47.3983 26.4999 53.6663 32.4322 53.6663 39.7499C53.6663 47.0677 47.3983 52.9999 39.6663 52.9999C31.9344 52.9999 25.6663 47.0677 25.6663 39.7499C25.6663 32.4322 31.9344 26.4999 39.6663 26.4999ZM47.1493 34.8761C46.2382 34.0136 44.7612 34.0136 43.85 34.8761L38.4997 39.9396L36.6493 38.1886L36.4718 38.0376C35.5552 37.3302 34.2042 37.3802 33.35 38.1886C32.4386 39.051 32.4386 40.4489 33.35 41.3112L36.85 44.6237C37.7612 45.4863 39.2382 45.4863 40.1493 44.6237L47.1493 37.9987C48.0607 37.1364 48.0607 35.7385 47.1493 34.8761ZM34.4163 2.20825C37.3157 2.20825 39.6663 4.43284 39.6663 7.177C39.6663 9.92117 37.3157 12.1458 34.4163 12.1458H21.583C18.6835 12.1458 16.333 9.92117 16.333 7.177C16.333 4.43284 18.6835 2.20825 21.583 2.20825H34.4163Z" fill="white"/>
</mask>
<g mask="url(#mask1_45_1213)">
<g filter="url(#filter0_f_45_1213)">
<path d="M7 20.7583C7 15.8112 7 13.3376 8.01726 11.4481C8.9121 9.78599 10.3399 8.43466 12.0961 7.58777C14.0926 6.625 16.7062 6.625 21.9333 6.625H34.0667C39.2938 6.625 41.9074 6.625 43.904 7.58777C45.6601 8.43466 47.0878 9.78599 47.9827 11.4481C49 13.3376 49 15.8112 49 20.7583V34.45C49 39.3971 49 41.8707 47.9827 43.7603C47.0878 45.4223 45.6601 46.7736 43.904 47.6205C41.9074 48.5833 39.2938 48.5833 34.0667 48.5833H21.9333C16.7062 48.5833 14.0926 48.5833 12.0961 47.6205C10.3399 46.7736 8.9121 45.4223 8.01726 43.7603C7 41.8707 7 39.3971 7 34.45V20.7583Z" fill="url(#paint1_linear_45_1213)"/>
</g>
</g>
<path d="M39.6663 26.4999C47.3983 26.4999 53.6663 32.4322 53.6663 39.7499C53.6663 47.0677 47.3983 52.9999 39.6663 52.9999C31.9344 52.9999 25.6663 47.0677 25.6663 39.7499C25.6663 32.4322 31.9344 26.4999 39.6663 26.4999ZM47.1493 34.8761C46.2382 34.0136 44.7612 34.0136 43.85 34.8761L38.4997 39.9396L36.6493 38.1886L36.4718 38.0376C35.5552 37.3302 34.2042 37.3802 33.35 38.1886C32.4386 39.051 32.4386 40.4489 33.35 41.3112L36.85 44.6237C37.7612 45.4863 39.2382 45.4863 40.1493 44.6237L47.1493 37.9987C48.0607 37.1364 48.0607 35.7385 47.1493 34.8761ZM34.4163 2.20825C37.3157 2.20825 39.6663 4.43284 39.6663 7.177C39.6663 9.92117 37.3157 12.1458 34.4163 12.1458H21.583C18.6835 12.1458 16.333 9.92117 16.333 7.177C16.333 4.43284 18.6835 2.20825 21.583 2.20825H34.4163Z" fill="url(#paint2_linear_45_1213)"/>
<path d="M34.4163 10.4895V12.1458H21.583V10.4895H34.4163ZM37.9163 7.177C37.9163 5.34755 36.3493 3.8645 34.4163 3.8645H21.583C19.65 3.8645 18.083 5.34755 18.083 7.177C18.083 9.00645 19.65 10.4895 21.583 10.4895V12.1458C18.6835 12.1458 16.333 9.92116 16.333 7.177C16.333 4.60467 18.3984 2.48902 21.0452 2.23413L21.583 2.20825H34.4163L34.9542 2.23413C37.6009 2.48902 39.6663 4.60467 39.6663 7.177C39.6663 9.92116 37.3157 12.1458 34.4163 12.1458V10.4895C36.3493 10.4895 37.9163 9.00645 37.9163 7.177Z" fill="url(#paint3_linear_45_1213)"/>
<path d="M39.667 26.5C47.399 26.5 53.667 32.4322 53.667 39.75C53.667 47.0678 47.399 53 39.667 53C31.935 53 25.667 47.0678 25.667 39.75C25.667 32.4322 31.935 26.5 39.667 26.5ZM39.667 28.1562C32.9015 28.1562 27.417 33.3469 27.417 39.75C27.417 46.1531 32.9015 51.3438 39.667 51.3438C46.4325 51.3438 51.917 46.1531 51.917 39.75C51.917 33.3469 46.4325 28.1562 39.667 28.1562Z" fill="url(#paint4_linear_45_1213)"/>
</g>
<defs>
<filter id="filter0_f_45_1213" x="3" y="2.625" width="50" height="49.9584" filterUnits="userSpaceOnUse" color-interpolation-filters="sRGB">
<feFlood flood-opacity="0" result="BackgroundImageFix"/>
<feBlend mode="normal" in="SourceGraphic" in2="BackgroundImageFix" result="shape"/>
<feGaussianBlur stdDeviation="2" result="effect1_foregroundBlur_45_1213"/>
</filter>
<linearGradient id="paint0_linear_45_1213" x1="28" y1="6.625" x2="28" y2="48.5833" gradientUnits="userSpaceOnUse">
<stop stop-color="#FFC4A4"/>
<stop offset="1" stop-color="#FF6613"/>
</linearGradient>
<linearGradient id="paint1_linear_45_1213" x1="28" y1="6.625" x2="28" y2="48.5833" gradientUnits="userSpaceOnUse">
<stop stop-color="#FFC4A4"/>
<stop offset="1" stop-color="#FF6613"/>
</linearGradient>
<linearGradient id="paint2_linear_45_1213" x1="32.5757" y1="-21.3849" x2="31.5064" y2="71.6358" gradientUnits="userSpaceOnUse">
<stop/>
<stop offset="1" stop-color="white" stop-opacity="0.6"/>
</linearGradient>
<linearGradient id="paint3_linear_45_1213" x1="27.9997" y1="2.20825" x2="27.9997" y2="7.96317" gradientUnits="userSpaceOnUse">
<stop stop-color="white"/>
<stop offset="1" stop-color="white" stop-opacity="0"/>
</linearGradient>
<linearGradient id="paint4_linear_45_1213" x1="39.667" y1="26.5" x2="39.667" y2="41.8457" gradientUnits="userSpaceOnUse">
<stop stop-color="white"/>
<stop offset="1" stop-color="white" stop-opacity="0"/>
</linearGradient>
<clipPath id="clip0_45_1213">
<rect width="56" height="53" fill="white"/>
</clipPath>
</defs>
</svg>
