<svg width="20" height="16" viewBox="0 0 20 16" fill="none" xmlns="http://www.w3.org/2000/svg">
<path d="M9.84546 5.00006L12.7273 7.63339V7.50006C12.7273 6.83702 12.4399 6.20113 11.9285 5.73229C11.417 5.26345 10.7233 5.00006 10 5.00006H9.84546ZM5.93636 5.66673L7.34545 6.95839C7.3 7.13339 7.27273 7.30839 7.27273 7.50006C7.27273 8.1631 7.56006 8.79899 8.07153 9.26783C8.58299 9.73667 9.27668 10.0001 10 10.0001C10.2 10.0001 10.4 9.97506 10.5909 9.93339L12 11.2251C11.3909 11.5001 10.7182 11.6667 10 11.6667C8.79447 11.6667 7.63832 11.2277 6.78588 10.4463C5.93344 9.66494 5.45455 8.60513 5.45455 7.50006C5.45455 6.84173 5.63636 6.22506 5.93636 5.66673ZM0.909091 1.05839L2.98182 2.95839L3.39091 3.33339C1.89091 4.41673 0.709091 5.83339 0 7.50006C1.57273 11.1584 5.45455 13.7501 10 13.7501C11.4091 13.7501 12.7545 13.5001 13.9818 13.0501L14.3727 13.4001L17.0273 15.8334L18.1818 14.7751L2.06364 6.10352e-05M10 3.33339C11.2055 3.33339 12.3617 3.77238 13.2141 4.55378C14.0666 5.33518 14.5455 6.39499 14.5455 7.50006C14.5455 8.03339 14.4273 8.55006 14.2182 9.01673L16.8818 11.4584C18.2455 10.4167 19.3364 9.05006 20 7.50006C18.4273 3.84173 14.5455 1.25006 10 1.25006C8.72727 1.25006 7.50909 1.45839 6.36364 1.83339L8.33636 3.62506C8.85455 3.44173 9.40909 3.33339 10 3.33339Z" fill="#1E1E1E"/>
</svg>
