<svg width="35" height="35" viewBox="0 0 35 35" fill="none" xmlns="http://www.w3.org/2000/svg">
<path d="M18.9993 2.91669C20.64 2.92106 21.4727 2.92981 22.1916 2.95023L22.4746 2.96044C22.8012 2.9721 23.1235 2.98669 23.5129 3.00419C25.0646 3.0771 26.1233 3.3221 27.0523 3.68231C28.0148 4.05273 28.8256 4.55439 29.6364 5.36377C30.3783 6.09255 30.9521 6.97446 31.3179 7.94794C31.6781 8.87689 31.9231 9.93564 31.996 11.4888C32.0135 11.8767 32.0281 12.199 32.0398 12.5271L32.0485 12.81C32.0704 13.5275 32.0791 14.3602 32.0821 16.0009L32.0835 17.0888V18.9992C32.0871 20.0629 32.0759 21.1266 32.05 22.19L32.0412 22.4729C32.0296 22.8011 32.015 23.1233 31.9975 23.5113C31.9246 25.0644 31.6766 26.1217 31.3179 27.0521C30.9521 28.0256 30.3783 28.9075 29.6364 29.6363C28.9077 30.3781 28.0257 30.952 27.0523 31.3177C26.1233 31.6779 25.0646 31.9229 23.5129 31.9958L22.4746 32.0396L22.1916 32.0483C21.4727 32.0688 20.64 32.079 18.9993 32.0819L17.9114 32.0833H16.0025C14.9383 32.0871 13.8741 32.0759 12.8102 32.0498L12.5273 32.0411C12.1811 32.0279 11.835 32.0129 11.4889 31.9958C9.93726 31.9229 8.87851 31.6779 7.9481 31.3177C6.97514 30.9518 6.09374 30.3779 5.36539 29.6363C4.62302 28.9076 4.04867 28.0257 3.68247 27.0521C3.32226 26.1231 3.07726 25.0644 3.00435 23.5113L2.9606 22.4729L2.9533 22.19C2.92642 21.1266 2.91427 20.0629 2.91685 18.9992V16.0009C2.91281 14.9371 2.9235 13.8734 2.94893 12.81L2.95914 12.5271C2.9708 12.199 2.98539 11.8767 3.00289 11.4888C3.0758 9.93564 3.3208 8.87835 3.68101 7.94794C4.04807 6.97406 4.62342 6.09211 5.36685 5.36377C6.09478 4.62228 6.97566 4.04846 7.9481 3.68231C8.87851 3.3221 9.9358 3.0771 11.4889 3.00419C11.8768 2.98669 12.2006 2.9721 12.5273 2.96044L12.8102 2.95169C13.8736 2.92578 14.9373 2.91459 16.001 2.91815L18.9993 2.91669ZM17.5002 10.2084C15.5663 10.2084 13.7116 10.9766 12.3442 12.344C10.9767 13.7115 10.2085 15.5661 10.2085 17.5C10.2085 19.4339 10.9767 21.2886 12.3442 22.656C13.7116 24.0235 15.5663 24.7917 17.5002 24.7917C19.4341 24.7917 21.2887 24.0235 22.6562 22.656C24.0236 21.2886 24.7918 19.4339 24.7918 17.5C24.7918 15.5661 24.0236 13.7115 22.6562 12.344C21.2887 10.9766 19.4341 10.2084 17.5002 10.2084ZM17.5002 13.125C18.0747 13.1249 18.6436 13.238 19.1745 13.4578C19.7053 13.6775 20.1877 13.9997 20.594 14.4059C21.0003 14.8121 21.3227 15.2943 21.5426 15.8251C21.7626 16.3559 21.8758 16.9248 21.8759 17.4993C21.876 18.0738 21.7629 18.6427 21.5432 19.1736C21.3234 19.7044 21.0012 20.1868 20.595 20.5931C20.1888 20.9994 19.7066 21.3218 19.1758 21.5417C18.6451 21.7617 18.0762 21.8749 17.5016 21.875C16.3413 21.875 15.2285 21.4141 14.408 20.5936C13.5876 19.7731 13.1266 18.6603 13.1266 17.5C13.1266 16.3397 13.5876 15.2269 14.408 14.4064C15.2285 13.586 16.3413 13.125 17.5016 13.125M25.1579 8.02085C24.6744 8.02085 24.2108 8.21291 23.8689 8.55477C23.527 8.89664 23.335 9.3603 23.335 9.84377C23.335 10.3272 23.527 10.7909 23.8689 11.1328C24.2108 11.4746 24.6744 11.6667 25.1579 11.6667C25.6414 11.6667 26.105 11.4746 26.4469 11.1328C26.7888 10.7909 26.9808 10.3272 26.9808 9.84377C26.9808 9.3603 26.7888 8.89664 26.4469 8.55477C26.105 8.21291 25.6414 8.02085 25.1579 8.02085Z" fill="#FFF9F5"/>
</svg>
