<svg width="35" height="35" viewBox="0 0 35 35" fill="none" xmlns="http://www.w3.org/2000/svg">
<mask id="mask0_45_1234" style="mask-type:luminance" maskUnits="userSpaceOnUse" x="3" y="2" width="30" height="30">
<path fill-rule="evenodd" clip-rule="evenodd" d="M3.1849 31.1077C3.15742 31.2066 3.1565 31.311 3.18224 31.4103C3.20798 31.5096 3.25947 31.6004 3.33151 31.6735C3.40355 31.7465 3.49359 31.7993 3.59254 31.8265C3.69149 31.8536 3.79586 31.8542 3.8951 31.8281L10.6136 30.0723C12.7453 31.2269 15.1311 31.8319 17.5553 31.8325H17.5611C25.5616 31.8325 32.0832 25.3488 32.0832 17.3775C32.0881 15.4767 31.715 13.5938 30.9854 11.8385C30.2558 10.0832 29.1845 8.49052 27.8336 7.15315C26.4851 5.8048 24.8833 4.73636 23.1204 4.00931C21.3574 3.28226 19.4681 2.91093 17.5611 2.91669C9.56073 2.91669 3.03906 9.40044 3.03906 17.3702C3.03906 19.9063 3.70698 22.3971 4.97865 24.5948L3.1849 31.1077ZM12.9586 10.4563C13.2255 10.4636 13.5216 10.4781 13.803 11.1023C13.9897 11.5179 14.3032 12.2836 14.5599 12.9077C14.7597 13.3934 14.923 13.7929 14.9639 13.8746C15.0586 14.0613 15.1155 14.2756 14.993 14.5279L14.9522 14.6125C14.853 14.8167 14.783 14.9625 14.6168 15.1521L14.4082 15.4C14.2843 15.5517 14.1603 15.7004 14.0553 15.8054C13.8672 15.9921 13.6732 16.1934 13.8891 16.5667C14.1049 16.94 14.8632 18.1679 15.9818 19.1581C16.7999 19.896 17.7386 20.4879 18.757 20.9081C18.8591 20.9519 18.9417 20.9888 19.0049 21.019C19.3797 21.2056 19.6028 21.1765 19.8186 20.9256C20.0359 20.6734 20.7564 19.8334 21.0101 19.46C21.2551 19.0867 21.5059 19.145 21.853 19.2734C22.2001 19.4031 24.0464 20.3088 24.4211 20.494L24.6297 20.5961C24.8907 20.72 25.0672 20.8061 25.143 20.9315C25.2364 21.0904 25.2364 21.8356 24.9272 22.7136C24.6093 23.5886 23.0795 24.4286 22.3868 24.4927L22.1899 24.5161C21.5541 24.5919 20.7491 24.6911 17.8791 23.5609C14.3411 22.1696 12.0064 18.7192 11.5353 18.0206L11.458 17.9098L11.4507 17.8981C11.2349 17.6109 9.92094 15.8536 9.92094 14.0394C9.92094 12.304 10.777 11.3998 11.1664 10.9886L11.2349 10.9156C11.3609 10.7733 11.5149 10.6584 11.6873 10.5781C11.8596 10.4978 12.0467 10.4539 12.2368 10.449C12.4891 10.449 12.7428 10.449 12.9586 10.4563Z" fill="white"/>
</mask>
<g mask="url(#mask0_45_1234)">
<path fill-rule="evenodd" clip-rule="evenodd" d="M3.1849 31.1077C3.15742 31.2066 3.1565 31.311 3.18224 31.4103C3.20798 31.5096 3.25947 31.6004 3.33151 31.6735C3.40355 31.7465 3.49359 31.7993 3.59254 31.8265C3.69149 31.8536 3.79586 31.8542 3.8951 31.8281L10.6136 30.0723C12.7453 31.2269 15.1311 31.8319 17.5553 31.8325H17.5611C25.5616 31.8325 32.0832 25.3488 32.0832 17.3775C32.0881 15.4767 31.715 13.5938 30.9854 11.8385C30.2558 10.0832 29.1845 8.49052 27.8336 7.15315C26.4851 5.8048 24.8833 4.73636 23.1204 4.00931C21.3574 3.28226 19.4681 2.91093 17.5611 2.91669C9.56073 2.91669 3.03906 9.40044 3.03906 17.3702C3.03906 19.9063 3.70698 22.3971 4.97865 24.5948L3.1849 31.1077ZM12.9586 10.4563C13.2255 10.4636 13.5216 10.4781 13.803 11.1023C13.9897 11.5179 14.3032 12.2836 14.5599 12.9077C14.7597 13.3934 14.923 13.7929 14.9639 13.8746C15.0586 14.0613 15.1155 14.2756 14.993 14.5279L14.9522 14.6125C14.853 14.8167 14.783 14.9625 14.6168 15.1521L14.4082 15.4C14.2843 15.5517 14.1603 15.7004 14.0553 15.8054C13.8672 15.9921 13.6732 16.1934 13.8891 16.5667C14.1049 16.94 14.8632 18.1679 15.9818 19.1581C16.7999 19.896 17.7386 20.4879 18.757 20.9081C18.8591 20.9519 18.9417 20.9888 19.0049 21.019C19.3797 21.2056 19.6028 21.1765 19.8186 20.9256C20.0359 20.6734 20.7564 19.8334 21.0101 19.46C21.2551 19.0867 21.5059 19.145 21.853 19.2734C22.2001 19.4031 24.0464 20.3088 24.4211 20.494L24.6297 20.5961C24.8907 20.72 25.0672 20.8061 25.143 20.9315C25.2364 21.0904 25.2364 21.8356 24.9272 22.7136C24.6093 23.5886 23.0795 24.4286 22.3868 24.4927L22.1899 24.5161C21.5541 24.5919 20.7491 24.6911 17.8791 23.5609C14.3411 22.1696 12.0064 18.7192 11.5353 18.0206L11.458 17.9098L11.4507 17.8981C11.2349 17.6109 9.92094 15.8536 9.92094 14.0394C9.92094 12.304 10.777 11.3998 11.1664 10.9886L11.2349 10.9156C11.3609 10.7733 11.5149 10.6584 11.6873 10.5781C11.8596 10.4978 12.0467 10.4539 12.2368 10.449C12.4891 10.449 12.7428 10.449 12.9586 10.4563Z" fill="#FFF9F5" stroke="#FFF9F5" stroke-width="2" stroke-linejoin="round"/>
</g>
</svg>
