<svg width="56" height="56" viewBox="0 0 56 56" fill="none" xmlns="http://www.w3.org/2000/svg">
<g clip-path="url(#clip0_45_1186)">
<mask id="mask0_45_1186" style="mask-type:luminance" maskUnits="userSpaceOnUse" x="0" y="0" width="56" height="56">
<path d="M56 0H0V55.1385H56V0Z" fill="white"/>
<path d="M2.3335 27.5692C2.3335 34.0368 4.83936 40.5045 9.8511 45.4392C14.8628 50.3738 21.4315 52.841 28.0002 52.841C34.5687 52.841 41.1375 50.3738 46.1493 45.4392C50.5677 41.0887 53.0385 35.5466 53.5616 29.8637C53.6778 28.5999 52.6222 27.5692 51.3335 27.5692H28.0002L11.501 11.3239C10.5898 10.4267 9.10273 10.4207 8.27687 11.3947C4.31461 16.0678 2.3335 21.8185 2.3335 27.5692Z" fill="black"/>
</mask>
<g mask="url(#mask0_45_1186)">
<path d="M42.7706 9.78173C33.6053 2.38537 20.0575 2.89946 11.5013 11.324C7.53841 15.2259 5.29899 20.1821 4.78297 25.2756C4.65506 26.5382 5.71178 27.5693 7.00044 27.5693H28.0004L42.8498 12.9485C43.7609 12.0513 43.7674 10.586 42.7706 9.78173Z" fill="url(#paint0_linear_45_1186)"/>
<path d="M42.7706 9.78173C33.6053 2.38537 20.0575 2.89946 11.5013 11.324C7.53841 15.2259 5.29899 20.1821 4.78297 25.2756C4.65506 26.5382 5.71178 27.5693 7.00044 27.5693H28.0004L42.8498 12.9485C43.7609 12.0513 43.7674 10.586 42.7706 9.78173Z" fill="url(#paint1_linear_45_1186)"/>
</g>
<mask id="mask1_45_1186" style="mask-type:luminance" maskUnits="userSpaceOnUse" x="2" y="10" width="52" height="43">
<path d="M2.3335 27.5692C2.3335 34.0368 4.83936 40.5045 9.8511 45.4392C14.8628 50.3738 21.4315 52.841 28.0002 52.841C34.5687 52.841 41.1375 50.3738 46.1493 45.4392C50.5677 41.0887 53.0385 35.5466 53.5616 29.8637C53.6778 28.5999 52.6222 27.5692 51.3335 27.5692H28.0002L11.501 11.3239C10.5898 10.4267 9.10273 10.4207 8.27687 11.3947C4.31461 16.0678 2.3335 21.8185 2.3335 27.5692Z" fill="white"/>
</mask>
<g mask="url(#mask1_45_1186)">
<g filter="url(#filter0_f_45_1186)">
<path d="M42.7706 9.78173C33.6053 2.38537 20.0575 2.89946 11.5013 11.324C7.53841 15.2259 5.29899 20.1821 4.78297 25.2756C4.65506 26.5382 5.71178 27.5693 7.00044 27.5693H28.0004L42.8498 12.9485C43.7609 12.0513 43.7674 10.586 42.7706 9.78173Z" fill="url(#paint2_linear_45_1186)"/>
</g>
</g>
<path d="M2.3335 27.5692C2.3335 34.0368 4.83936 40.5045 9.8511 45.4392C14.8628 50.3738 21.4315 52.841 28.0002 52.841C34.5687 52.841 41.1375 50.3738 46.1493 45.4392C50.5677 41.0887 53.0385 35.5466 53.5616 29.8637C53.6778 28.5999 52.6222 27.5692 51.3335 27.5692H28.0002L11.501 11.3239C10.5898 10.4267 9.10273 10.4207 8.27687 11.3947C4.31461 16.0678 2.3335 21.8185 2.3335 27.5692Z" fill="url(#paint3_linear_45_1186)"/>
<path d="M2.3335 27.569C2.3335 22.1782 4.07416 16.7867 7.5561 12.2835L8.27615 11.395C9.10191 10.4211 10.5892 10.4263 11.5004 11.3232L27.9999 27.569H51.333C52.6213 27.569 53.6771 28.599 53.5616 29.8621L53.4407 30.9279C52.7221 36.2349 50.2912 41.361 46.1493 45.4394L45.1922 46.3345C40.3169 50.672 34.1583 52.841 27.9999 52.841V51.118C34.1233 51.118 40.2415 48.8194 44.9119 44.2211C49.03 40.1661 51.3309 35.0038 51.8184 29.7072C51.8275 29.608 51.7957 29.5212 51.7183 29.4426C51.655 29.3789 51.5636 29.3259 51.4516 29.3034L51.333 29.2921H27.2754L10.2631 12.5415C10.1452 12.4255 10.0014 12.3783 9.88031 12.38C9.76878 12.3817 9.68548 12.4223 9.62054 12.4989C5.9304 16.8511 4.08347 22.2075 4.08347 27.569C4.08357 33.5984 6.41774 39.6227 11.088 44.2211C15.7583 48.8194 21.8766 51.118 27.9999 51.118V52.841L26.7696 52.8119C21.0267 52.5421 15.3582 50.383 10.8077 46.3345L9.85068 45.4394C5.15212 40.813 2.65669 34.8386 2.36313 28.7807L2.3335 27.569Z" fill="url(#paint4_linear_45_1186)"/>
</g>
<defs>
<filter id="filter0_f_45_1186" x="0.772461" y="0.594971" width="46.7539" height="30.9744" filterUnits="userSpaceOnUse" color-interpolation-filters="sRGB">
<feFlood flood-opacity="0" result="BackgroundImageFix"/>
<feBlend mode="normal" in="SourceGraphic" in2="BackgroundImageFix" result="shape"/>
<feGaussianBlur stdDeviation="2" result="effect1_foregroundBlur_45_1186"/>
</filter>
<linearGradient id="paint0_linear_45_1186" x1="24.1504" y1="4.59497" x2="24.1504" y2="27.5693" gradientUnits="userSpaceOnUse">
<stop stop-color="#575757"/>
<stop offset="1" stop-color="#151515"/>
</linearGradient>
<linearGradient id="paint1_linear_45_1186" x1="24.1492" y1="4.59497" x2="24.1492" y2="27.5693" gradientUnits="userSpaceOnUse">
<stop stop-color="#FFC4A4"/>
<stop offset="1" stop-color="#FF6613"/>
</linearGradient>
<linearGradient id="paint2_linear_45_1186" x1="24.1492" y1="4.59497" x2="24.1492" y2="27.5693" gradientUnits="userSpaceOnUse">
<stop stop-color="#FFC4A4"/>
<stop offset="1" stop-color="#FF6613"/>
</linearGradient>
<linearGradient id="paint3_linear_45_1186" x1="24.6252" y1="-8.93724" x2="24.0878" y2="68.325" gradientUnits="userSpaceOnUse">
<stop/>
<stop offset="1" stop-color="white" stop-opacity="0.6"/>
</linearGradient>
<linearGradient id="paint4_linear_45_1186" x1="27.9512" y1="10.6578" x2="27.9512" y2="35.0865" gradientUnits="userSpaceOnUse">
<stop stop-color="white"/>
<stop offset="1" stop-color="white" stop-opacity="0"/>
</linearGradient>
<clipPath id="clip0_45_1186">
<rect width="56" height="55.1385" fill="white"/>
</clipPath>
</defs>
</svg>
