<svg width="147" height="46" viewBox="0 0 147 46" fill="none" xmlns="http://www.w3.org/2000/svg">
<path d="M6.76465 31.0378V9.76312H10.4965L17.705 21.2776L24.9135 9.76312H28.6135V31.0378H24.9135V15.8872L17.705 27.306L10.4965 15.8872V31.0378H6.76465Z" fill="#1E1E1E"/>
<path d="M44.8875 22.681C44.8875 21.2138 44.3771 19.9805 43.3564 18.9811C42.3358 17.9604 41.0918 17.4501 39.6246 17.4501C38.1574 17.4501 36.9134 17.9498 35.8928 18.9492C34.8933 19.9486 34.3936 21.1926 34.3936 22.681C34.3936 24.1695 34.8933 25.4241 35.8928 26.4448C36.8922 27.4655 38.1361 27.9758 39.6246 27.9758C41.1131 27.9758 42.357 27.4655 43.3564 26.4448C44.3771 25.4241 44.8875 24.1695 44.8875 22.681ZM30.8213 22.681C30.8213 20.2782 31.608 18.2687 33.1816 16.6527C34.7764 15.0366 36.637 14.2286 38.7634 14.2286C40.1668 14.2286 41.4001 14.5582 42.4634 15.2174C43.5266 15.8553 44.3346 16.7377 44.8875 17.8647V14.3562H48.4279V31.0378H44.8875V27.5292C44.3559 28.6775 43.5478 29.5812 42.4634 30.2404C41.4001 30.8783 40.1668 31.1973 38.7634 31.1973C36.6157 31.1973 34.7551 30.3893 33.1816 28.7732C31.608 27.1359 30.8213 25.1051 30.8213 22.681Z" fill="#1E1E1E"/>
<path d="M51.3377 14.3562H54.9101V17.8647C55.4417 16.7377 56.2603 15.8553 57.3661 15.2174C58.4718 14.5582 59.6732 14.2286 60.9703 14.2286C62.7778 14.2286 64.1918 14.8452 65.2125 16.0785C66.2544 17.2906 66.7754 18.9386 66.7754 21.0224V31.0378H63.203V21.2457C63.203 20.0975 62.8841 19.1512 62.2462 18.407C61.6295 17.6627 60.7683 17.2906 59.6626 17.2906C58.3229 17.2693 57.1959 17.7478 56.2816 18.7259C55.3672 19.6828 54.9101 20.8311 54.9101 22.1707V31.0378H51.3377V14.3562Z" fill="#1E1E1E"/>
<path d="M82.7043 22.681C82.7043 21.2138 82.1939 19.9805 81.1732 18.9811C80.1526 17.9604 78.9086 17.4501 77.4414 17.4501C75.9742 17.4501 74.7302 17.9498 73.7096 18.9492C72.7102 19.9486 72.2104 21.1926 72.2104 22.681C72.2104 24.1695 72.7102 25.4241 73.7096 26.4448C74.709 27.4655 75.9529 27.9758 77.4414 27.9758C78.9299 27.9758 80.1738 27.4655 81.1732 26.4448C82.1939 25.4241 82.7043 24.1695 82.7043 22.681ZM68.6381 22.681C68.6381 20.2782 69.4249 18.2687 70.9984 16.6527C72.5932 15.0366 74.4538 14.2286 76.5802 14.2286C77.9836 14.2286 79.217 14.5582 80.2802 15.2174C81.3434 15.8553 82.1514 16.7377 82.7043 17.8647V14.3562H86.2447V31.0378H82.7043V27.5292C82.1727 28.6775 81.3646 29.5812 80.2802 30.2404C79.217 30.8783 77.9836 31.1973 76.5802 31.1973C74.4325 31.1973 72.5719 30.3893 70.9984 28.7732C69.4249 27.1359 68.6381 25.1051 68.6381 22.681Z" fill="#1E1E1E"/>
<path d="M102.359 22.681C102.359 21.1926 101.86 19.9592 100.86 18.9811C99.8609 17.9817 98.6276 17.482 97.1604 17.482C95.6932 17.482 94.4599 17.9817 93.4605 18.9811C92.4611 19.9592 91.9613 21.1926 91.9613 22.681C91.9613 24.1695 92.4611 25.4241 93.4605 26.4448C94.4599 27.4655 95.6932 27.9758 97.1604 27.9758C98.6064 27.9758 99.8291 27.4655 100.828 26.4448C101.849 25.4241 102.359 24.1695 102.359 22.681ZM97.1604 14.2286H106.091V17.3863H102.838C103.774 17.8541 104.528 18.5771 105.103 19.5552C105.677 20.5334 105.964 21.5753 105.964 22.681C105.964 25.0839 105.103 27.104 103.38 28.7413C101.658 30.3786 99.5845 31.1973 97.1604 31.1973C96.2248 31.1973 95.3423 31.0803 94.513 30.8464C94.3642 30.7826 94.1409 30.7507 93.8432 30.7507C93.3754 30.7507 92.9501 30.8783 92.5674 31.1335C92.2059 31.3887 91.9614 31.7289 91.8338 32.1542C91.6637 32.6645 91.6637 33.1323 91.8338 33.5576C92.0251 34.0041 92.3654 34.355 92.8544 34.6102C93.8751 35.0992 95.3104 35.3438 97.1604 35.3438C99.946 35.3438 102.445 34.5889 104.656 33.0792L106.091 36.1731C103.37 37.8317 100.393 38.661 97.1604 38.661C95.0978 38.661 93.386 38.3739 92.0251 37.7998C91.0257 37.3745 90.2602 36.7259 89.7286 35.8541C89.197 35.0036 88.995 34.0998 89.1226 33.143C89.1864 32.3137 89.4735 31.58 89.9838 30.9421C90.4941 30.2829 91.1533 29.8151 91.9613 29.5387C90.8344 28.7732 89.9519 27.795 89.314 26.6043C88.6761 25.4135 88.3571 24.1057 88.3571 22.681C88.3571 20.2782 89.2077 18.2687 90.9088 16.6527C92.6099 15.0366 94.6938 14.2286 97.1604 14.2286Z" fill="#1E1E1E"/>
<path d="M107.45 11.5493C107.45 10.5712 107.79 9.78439 108.471 9.18899C109.151 8.57234 110.002 8.26401 111.023 8.26401C112.341 8.26401 113.308 8.6255 113.925 9.34847C114.542 10.0715 114.85 11.0283 114.85 12.2191C114.85 13.3674 114.627 14.4625 114.18 15.5044C113.734 16.5464 113.085 17.4713 112.235 18.2794C111.405 19.0662 110.448 19.6403 109.364 20.0018L107.992 17.6734C109.672 16.8441 110.735 15.8872 111.182 14.8027C110.14 14.8027 109.258 14.5156 108.535 13.9415C107.812 13.3461 107.45 12.5487 107.45 11.5493Z" fill="#FF6613"/>
<path d="M116.274 31.0059V14.3243H122.94V31.0059H116.274ZM119.559 6.76489C120.622 6.76489 121.494 7.07322 122.175 7.68988C122.876 8.28527 123.227 9.06141 123.227 10.0183C123.227 10.9752 122.866 11.7619 122.143 12.3786C121.441 12.9953 120.58 13.3036 119.559 13.3036C118.56 13.3036 117.709 12.9953 117.008 12.3786C116.306 11.7619 115.955 10.9752 115.955 10.0183C115.955 9.06141 116.295 8.28527 116.976 7.68988C117.677 7.07322 118.539 6.76489 119.559 6.76489Z" fill="#FF6613"/>
<path d="M132.245 9.82692V14.3243H136.041V19.4914H132.245V24.4353C132.245 25.2008 132.671 25.5836 133.521 25.5836C133.989 25.5836 134.638 25.4241 135.467 25.1051L136.647 30.3361C134.988 30.9528 133.362 31.2611 131.767 31.2611C130.47 31.2611 129.353 31.0166 128.418 30.5275C127.503 30.0384 126.802 29.3261 126.313 28.3904C125.824 27.4336 125.579 26.3066 125.579 25.0095V19.4914H123.793V14.3243H125.579C125.834 14.0053 126.111 13.6438 126.408 13.2398C126.727 12.8145 127.004 12.4318 127.238 12.0915C127.493 11.7513 127.78 11.3686 128.099 10.9433C128.418 10.518 128.705 10.1459 128.96 9.82692H132.245Z" fill="#FF6613"/>
</svg>
