<svg width="97" height="21" viewBox="0 0 97 21" fill="none" xmlns="http://www.w3.org/2000/svg">
<mask id="mask0_45_1155" style="mask-type:alpha" maskUnits="userSpaceOnUse" x="0" y="0" width="97" height="21">
<g clip-path="url(#clip0_45_1155)">
<path d="M96.0105 9.2727V7.58408H93.9137V4.95916L93.8432 4.98072L91.8736 5.58342L91.835 5.59523V7.58408H88.7265V6.4762C88.7265 5.96033 88.8418 5.56541 89.0693 5.30232C89.295 5.04204 89.6179 4.90984 90.0297 4.90984C90.326 4.90984 90.6324 4.9796 90.9411 5.11705L91.0183 5.15155V3.37348L90.982 3.36035C90.6941 3.25666 90.3026 3.20471 89.8175 3.20471C89.2058 3.20471 88.6501 3.33766 88.1654 3.60151C87.6807 3.86535 87.299 4.24264 87.0318 4.72213C86.7655 5.20106 86.6305 5.75406 86.6305 6.36613V7.58426H85.1705V9.27289H86.6305V16.3861H88.7265V9.2727H91.835V13.7931C91.835 15.6548 92.713 16.5984 94.4449 16.5984C94.7442 16.5966 95.0425 16.5635 95.3349 16.4994C95.6462 16.4324 95.8581 16.3655 95.983 16.2941L96.0105 16.2777V14.5735L95.9254 14.63C95.8116 14.7059 95.67 14.7678 95.5038 14.8138C95.337 14.8606 95.1976 14.8843 95.0898 14.8843C94.684 14.8843 94.384 14.7749 94.1976 14.5591C94.0093 14.3416 93.9137 13.9607 93.9137 13.4282V9.2727H96.0105ZM80.4898 14.8845C79.729 14.8845 79.1293 14.6321 78.7065 14.1353C78.2814 13.6358 78.0657 12.9239 78.0657 12.0191C78.0657 11.0858 78.2814 10.3554 78.7068 9.84708C79.1297 9.34227 79.7238 9.08593 80.4727 9.08593C81.1994 9.08593 81.7779 9.33065 82.1923 9.81389C82.6088 10.2994 82.8201 11.024 82.8201 11.9681C82.8201 12.9239 82.6213 13.6583 82.2294 14.1494C81.8403 14.6369 81.2551 14.8845 80.4898 14.8845ZM80.5832 7.37199C79.1318 7.37199 77.9789 7.79729 77.1572 8.63607C76.3356 9.47504 75.9191 10.6358 75.9191 12.0868C75.9191 13.4649 76.3257 14.5734 77.1275 15.381C77.9294 16.1887 79.0207 16.598 80.3707 16.598C81.7777 16.598 82.9075 16.1669 83.7292 15.3165C84.5506 14.467 84.9669 13.3172 84.9669 11.8999C84.9669 10.5004 84.5762 9.38372 83.8057 8.5815C83.0346 7.77891 81.9502 7.37199 80.5832 7.37199ZM72.5396 7.37199C71.5523 7.37199 70.7357 7.62458 70.1118 8.12245C69.4844 8.62332 69.166 9.28039 69.166 10.0753C69.166 10.4884 69.2346 10.8554 69.37 11.1667C69.5059 11.4791 69.7165 11.754 69.9963 11.9848C70.2738 12.2138 70.7023 12.4536 71.2703 12.6974C71.7476 12.8939 72.1037 13.0603 72.3298 13.1911C72.5509 13.3196 72.7079 13.4486 72.7964 13.5742C72.8824 13.6971 72.9261 13.8655 72.9261 14.0731C72.9261 14.6645 72.4834 14.9522 71.5722 14.9522C71.2341 14.9522 70.8486 14.8816 70.4263 14.7425C70.0071 14.6053 69.6113 14.4047 69.253 14.1475L69.166 14.0852V16.103L69.1978 16.118C69.4945 16.2549 69.8684 16.3702 70.3091 16.4611C70.749 16.5519 71.1484 16.5982 71.4957 16.5982C72.567 16.5982 73.4298 16.3445 74.0591 15.8436C74.693 15.3392 75.014 14.6669 75.014 13.8443C75.014 13.2511 74.8411 12.7422 74.5002 12.3319C74.1621 11.925 73.5748 11.5513 72.7557 11.221C72.1031 10.9591 71.6849 10.7417 71.5126 10.5748C71.3463 10.4136 71.2619 10.1856 71.2619 9.89696C71.2619 9.64081 71.3661 9.43585 71.5801 9.2697C71.7957 9.10281 72.0958 9.01786 72.472 9.01786C72.8213 9.01786 73.1785 9.07299 73.5339 9.18101C73.889 9.28921 74.2007 9.43416 74.4612 9.61118L74.5467 9.66969V7.75547L74.5139 7.74141C74.2738 7.63827 73.9569 7.55014 73.5725 7.47888C73.1892 7.40799 72.8417 7.37199 72.5396 7.37199ZM63.7018 14.8845C62.9412 14.8845 62.3413 14.6321 61.9186 14.1353C61.4933 13.6358 61.2783 12.9239 61.2783 12.0191C61.2783 11.0858 61.4935 10.3554 61.9192 9.84708C62.3417 9.34227 62.9356 9.08593 63.6849 9.08593C64.4115 9.08593 64.9901 9.33065 65.4045 9.81389C65.821 10.2994 66.0323 11.024 66.0323 11.9681C66.0323 12.9239 65.8335 13.6583 65.4416 14.1494C65.0523 14.6369 64.4672 14.8845 63.7018 14.8845ZM63.7954 7.37199C62.3436 7.37199 61.1907 7.79729 60.3693 8.63607C59.548 9.47504 59.1311 10.6358 59.1311 12.0868C59.1311 13.4655 59.5381 14.5734 60.3397 15.381C61.1414 16.1887 62.2327 16.598 63.5831 16.598C64.9895 16.598 66.1199 16.1669 66.9416 15.3165C67.7627 14.467 68.1792 13.3172 68.1792 11.8999C68.1792 10.5004 67.7884 9.38372 67.0177 8.5815C66.2464 7.77891 65.1622 7.37199 63.7954 7.37199ZM55.9495 9.10844V7.58408H53.8791V16.3857H55.9493V11.8832C55.9493 11.1175 56.1229 10.4886 56.4655 10.0136C56.8036 9.54423 57.2544 9.30627 57.8044 9.30627C57.991 9.30627 58.2003 9.33702 58.427 9.39797C58.6515 9.45835 58.814 9.52398 58.9099 9.59299L58.9969 9.65618V7.56908L58.9631 7.55464C58.7705 7.47269 58.4977 7.43144 58.1527 7.43144C57.6323 7.43144 57.1667 7.59852 56.768 7.92762C56.4179 8.21696 56.1648 8.61375 55.9714 9.10844H55.9495ZM50.1714 7.37199C49.2216 7.37199 48.3742 7.57583 47.6535 7.97731C46.9316 8.37954 46.373 8.95429 45.9931 9.68469C45.6148 10.4136 45.4228 11.2649 45.4228 12.2143C45.4228 13.0458 45.609 13.809 45.9769 14.4815C46.3452 15.1552 46.8665 15.6824 47.5262 16.048C48.1852 16.4131 48.9467 16.5982 49.7896 16.5982C50.7735 16.5982 51.6136 16.4015 52.2874 16.0137L52.3144 15.998V14.1012L52.2276 14.1648C51.9176 14.3893 51.5763 14.5669 51.2146 14.6921C50.8485 14.8198 50.5151 14.8843 50.2226 14.8843C49.4101 14.8843 48.758 14.6302 48.2846 14.1291C47.8101 13.6271 47.5695 12.9226 47.5695 12.0358C47.5695 11.1436 47.8204 10.4209 48.3147 9.8874C48.8077 9.35578 49.4611 9.08612 50.2567 9.08612C50.9372 9.08612 51.6003 9.31658 52.2276 9.7717L52.3144 9.8347V7.8361L52.2864 7.82035C52.0502 7.68815 51.7284 7.57901 51.3286 7.49632C50.9307 7.41381 50.5414 7.37199 50.1714 7.37199ZM43.9969 7.58408H41.9263V16.3857H43.9969V7.58408ZM42.9828 3.83459C42.642 3.83459 42.3448 3.95067 42.1007 4.18038C41.8554 4.41103 41.7309 4.70132 41.7309 5.04373C41.7309 5.38089 41.8539 5.66574 42.0966 5.8902C42.3379 6.11391 42.636 6.22736 42.9828 6.22736C43.3293 6.22736 43.6286 6.11391 43.8728 5.89057C44.1184 5.66574 44.2431 5.38089 44.2431 5.04373C44.2431 4.71332 44.1218 4.42585 43.8829 4.18976C43.6442 3.95405 43.3411 3.83459 42.9828 3.83459ZM37.8169 6.93488V16.3856H39.9299V4.10406H37.0055L33.2883 13.2264L29.6812 4.10406H26.6377V16.3857H28.6234V6.93394H28.6916L32.5007 16.3857H33.999L37.7487 6.93469L37.8169 6.93488Z" fill="#706D6E"/>
<path d="M9.73965 9.73965H0V0H9.73965V9.73965Z" fill="#F1511B"/>
<path d="M20.4936 9.73965H10.7539V0H20.4936V9.73965Z" fill="#80CC28"/>
<path d="M9.73946 20.4973H0V10.7577H9.73946V20.4973Z" fill="#00ADEF"/>
<path d="M20.4936 20.4973H10.7539V10.7577H20.4936V20.4973Z" fill="#FBBC09"/>
</g>
</mask>
<g mask="url(#mask0_45_1155)">
<rect x="-8.48633" y="-7.99432" width="110.829" height="37.5042" fill="#ABABAB"/>
</g>
<defs>
<clipPath id="clip0_45_1155">
<rect width="96.0107" height="20.6273" fill="white"/>
</clipPath>
</defs>
</svg>
