<svg width="90" height="30" viewBox="0 0 90 30" fill="none" xmlns="http://www.w3.org/2000/svg">
<mask id="mask0_45_1138" style="mask-type:alpha" maskUnits="userSpaceOnUse" x="0" y="0" width="90" height="30">
<g clip-path="url(#clip0_45_1138)">
<path d="M86.8189 17.994L89.3049 19.6536C88.4981 20.8436 86.5683 22.8853 83.2319 22.8853C79.0888 22.8853 76.0034 19.6755 76.0034 15.5921C76.0034 11.247 79.1216 8.29913 82.8831 8.29913C86.6663 8.29913 88.5198 11.3123 89.1196 12.9391L89.4467 13.7689L79.6995 17.8084C80.4409 19.2715 81.5967 20.0139 83.2319 20.0139C84.8675 20.0139 86.0012 19.2059 86.8189 17.994ZM79.1762 15.3631L85.6851 12.6553C85.3253 11.7493 84.257 11.1052 82.9811 11.1052C81.3567 11.1052 79.0999 12.5463 79.1762 15.3631Z" fill="#FF302F"/>
<path d="M71.3042 0.864197H74.444V22.2193H71.3042V0.864197Z" fill="#20B15A"/>
<path d="M66.3541 8.86679H69.3851V21.8371C69.3851 27.2194 66.2123 29.4357 62.4617 29.4357C58.9292 29.4357 56.8033 27.0557 56.0073 25.1234L58.7875 23.9659C59.2889 25.1559 60.4992 26.5645 62.4617 26.5645C64.8712 26.5645 66.3541 25.0687 66.3541 22.2738V21.2258H66.2451C65.5254 22.0991 64.1516 22.8851 62.4072 22.8851C58.7656 22.8851 55.4292 19.7081 55.4292 15.614C55.4292 11.4979 58.7656 8.28827 62.4072 8.28827C64.1408 8.28827 65.5254 9.06343 66.2451 9.91501H66.3541V8.86679ZM66.572 15.614C66.572 13.0374 64.8603 11.1595 62.6797 11.1595C60.4773 11.1595 58.6238 13.0374 58.6238 15.614C58.6238 18.1577 60.4773 20.0028 62.6797 20.0028C64.8605 20.0139 66.5722 18.1577 66.5722 15.614" fill="#3686F7"/>
<path d="M38.1922 15.5594C38.1922 19.7627 34.9214 22.8524 30.9091 22.8524C26.8969 22.8524 23.626 19.7519 23.626 15.5594C23.626 11.3342 26.8969 8.25549 30.9091 8.25549C34.9214 8.25549 38.1922 11.3342 38.1922 15.5594ZM35.0085 15.5594C35.0085 12.9393 33.1113 11.1376 30.9091 11.1376C28.7068 11.1376 26.8096 12.9393 26.8096 15.5594C26.8096 18.1577 28.7068 19.9811 30.9091 19.9811C33.1115 19.9811 35.0085 18.1577 35.0085 15.5594Z" fill="#FF302F"/>
<path d="M54.0994 15.5921C54.0994 19.7955 50.8284 22.8851 46.8163 22.8851C42.804 22.8851 39.5332 19.7953 39.5332 15.5921C39.5332 11.367 42.804 8.29913 46.8163 8.29913C50.8284 8.29913 54.0994 11.3562 54.0994 15.5921ZM50.9047 15.5921C50.9047 12.972 49.0077 11.1704 46.8053 11.1704C44.6028 11.1704 42.7058 12.972 42.7058 15.5921C42.7058 18.1905 44.603 20.0139 46.8053 20.0139C49.0186 20.0139 50.9047 18.1796 50.9047 15.5921Z" fill="#FFBA40"/>
<path d="M11.6542 19.6864C7.08586 19.6864 3.50986 15.9961 3.50986 11.4216C3.50986 6.84715 7.08586 3.15693 11.6542 3.15693C14.1183 3.15693 15.9172 4.12856 17.2473 5.37324L19.4389 3.17884C17.5855 1.39927 15.1105 0.0452271 11.6542 0.0452271C5.39605 0.0454023 0.129883 5.15504 0.129883 11.4216C0.129883 17.6881 5.39605 22.7979 11.6542 22.7979C15.0342 22.7979 17.5855 21.6843 19.5807 19.6099C21.6303 17.5573 22.2627 14.675 22.2627 12.3387C22.2627 11.6072 22.1755 10.8539 22.0773 10.2971H11.6542V13.3322H19.0791C18.861 15.232 18.2614 16.5312 17.3782 17.4154C16.3097 18.4964 14.6199 19.6864 11.6542 19.6864Z" fill="#3686F7"/>
</g>
</mask>
<g mask="url(#mask0_45_1138)">
<rect x="-2.4834" y="-1.28003" width="94.5737" height="32.0036" fill="#ABABAB"/>
</g>
<defs>
<clipPath id="clip0_45_1138">
<rect width="89.61" height="29.4433" fill="white"/>
</clipPath>
</defs>
</svg>
