<svg width="97" height="26" viewBox="0 0 97 26" fill="none" xmlns="http://www.w3.org/2000/svg">
<mask id="mask0_45_1167" style="mask-type:alpha" maskUnits="userSpaceOnUse" x="0" y="0" width="97" height="26">
<g clip-path="url(#clip0_45_1167)">
<path d="M41.4459 16.6657L40.41 19.8583C40.3815 19.9646 40.2825 20.0368 40.1726 20.031H37.6735C37.5226 20.031 37.4798 19.9447 37.5006 19.8155L41.8146 7.3692C41.9614 6.946 42.0347 6.50075 42.0311 6.0528C42.0291 6.01587 42.0414 5.97959 42.0655 5.9515C42.0896 5.92342 42.1235 5.9057 42.1603 5.90204H45.6122C45.7163 5.90204 45.7632 5.92379 45.7851 6.03105L50.679 19.8375C50.7218 19.9415 50.701 20.031 50.575 20.031H47.7708C47.7197 20.038 47.6679 20.0267 47.6244 19.9991C47.5809 19.9714 47.5487 19.9292 47.5334 19.88L46.4338 16.6657H41.4459ZM42.2219 13.9698H45.631L45.3028 12.9134C44.8507 11.477 44.2488 9.60764 43.9264 8.40413H43.9045C43.5598 9.84954 42.7831 12.2226 42.2219 13.9698ZM51.0226 14.7633C51.0216 11.679 53.3291 9.09046 57.2775 9.09046C57.4495 9.09046 57.6661 9.11221 57.9899 9.13302V4.88361C57.986 4.8494 57.9952 4.81498 58.0156 4.78726C58.036 4.75953 58.0662 4.74056 58.1 4.73415L60.8584 4.73265C60.9627 4.73265 60.9888 4.77522 60.9888 4.86167V17.6101C60.9835 18.1366 61.0123 18.6629 61.075 19.1856C61.075 19.2689 61.0611 19.3156 60.9895 19.3525L60.9243 19.3792C59.5803 19.9503 58.1349 20.2439 56.6747 20.2425C53.4821 20.2425 51.0228 18.4307 51.0228 14.7632M57.9901 11.6996C57.7324 11.6168 57.4617 11.5815 57.1913 11.5955C56.8014 11.5671 56.4098 11.6183 56.0404 11.7461C55.671 11.8739 55.3315 12.0757 55.0426 12.339C54.7537 12.6023 54.5215 12.9217 54.3601 13.2777C54.1987 13.6337 54.1114 14.0189 54.1037 14.4097L54.1071 14.6152C54.1071 16.7509 55.3369 17.6787 56.9758 17.6787C57.3188 17.6933 57.6617 17.6496 57.9901 17.5495V11.6996ZM73.335 14.3849L73.3426 14.6111C73.3426 17.9983 71.1425 20.2412 68.0321 20.2412C64.3429 20.2412 62.7038 17.459 62.7038 14.6756C62.6612 13.9491 62.7692 13.2216 63.0212 12.5388C63.2732 11.8561 63.6636 11.2328 64.168 10.7082C64.6724 10.1836 65.2799 9.76892 65.9522 9.49029C66.6245 9.21167 67.3472 9.07509 68.0748 9.08914C71.4584 9.08914 73.2455 11.5667 73.335 14.3849ZM65.7454 14.6296C65.7454 16.5279 66.6296 17.7357 68.0748 17.7357C69.3244 17.7357 70.275 16.6569 70.275 14.6722C70.275 12.9896 69.5847 11.588 67.9458 11.588C66.6962 11.588 65.7454 12.7094 65.7454 14.6296ZM75.2441 4.73228L77.8754 4.73115C78.0481 4.73115 78.091 4.75309 78.091 4.90405V9.32636C78.5633 9.19957 79.0477 9.12308 79.5361 9.09814L79.9027 9.08895C80.5661 9.05601 81.2294 9.15729 81.8527 9.38673C82.4761 9.61617 83.0467 9.96905 83.5305 10.4242C84.0143 10.8794 84.4012 11.4276 84.6681 12.0358C84.935 12.6441 85.0764 13.2999 85.0839 13.9641L85.08 14.2235C85.08 18.2574 81.8874 20.2421 78.6094 20.2421C77.4617 20.2501 76.3195 20.083 75.2222 19.7465C75.1838 19.7248 75.1518 19.6935 75.1292 19.6557C75.1065 19.6179 75.094 19.5749 75.093 19.5309V4.88361C75.093 4.77953 75.1357 4.73265 75.2441 4.73265M79.5494 11.6316L79.3643 11.6342C78.934 11.6291 78.5053 11.6874 78.092 11.8071V17.6529C78.2664 17.6932 78.4438 17.7196 78.6223 17.7316L78.8904 17.7391C79.3166 17.7633 79.743 17.6952 80.1405 17.5396C80.5381 17.384 80.8973 17.1445 81.1939 16.8375C81.4904 16.5304 81.7172 16.163 81.8588 15.7603C82.0005 15.3576 82.0536 14.9291 82.0145 14.504C82.0622 14.1497 82.0345 13.7894 81.933 13.4466C81.8316 13.1038 81.6588 12.7864 81.426 12.5151C81.1932 12.2439 80.9056 12.0249 80.5822 11.8727C80.2588 11.7204 79.9068 11.6381 79.5494 11.6316ZM89.2949 15.4517C89.3989 16.6815 90.2653 17.6956 92.3792 17.6956C93.2881 17.7125 94.191 17.5435 95.0323 17.199C95.0979 17.1563 95.1624 17.1771 95.1624 17.3031V19.3522C95.1624 19.5031 95.1198 19.5678 95.0114 19.6115C94.08 20.0285 93.071 20.2441 92.0505 20.2442L91.7107 20.2361C87.6559 20.2361 86.2313 17.4539 86.2313 14.7789C86.2313 11.8763 87.9745 9.22022 91.2003 9.08914L91.4514 9.08408C92.0644 9.0616 92.6754 9.16761 93.245 9.3953C93.8146 9.62299 94.3303 9.96732 94.759 10.4062C95.1876 10.845 95.5197 11.3687 95.7339 11.9435C95.9482 12.5183 96.0398 13.1316 96.0029 13.744C96.0187 14.228 95.9837 14.7124 95.8986 15.1892C95.8954 15.234 95.8762 15.2761 95.8445 15.3078C95.8128 15.3395 95.7706 15.3587 95.7259 15.3619C95.1717 15.4144 94.6164 15.4438 94.06 15.45L89.2949 15.4517ZM92.0991 13.3597C92.4592 13.3732 92.8199 13.359 93.1779 13.3172V13.166C93.1715 12.933 93.1187 12.7037 93.0226 12.4913C92.9266 12.2789 92.7892 12.0878 92.6185 11.9291C92.4478 11.7704 92.2472 11.6474 92.0284 11.5671C91.8095 11.4868 91.5769 11.4509 91.3441 11.4615C90.8217 11.4532 90.3159 11.6453 89.9307 11.9984C89.5455 12.3514 89.3101 12.8386 89.2729 13.3597H92.0991ZM14.123 9.21422L20.7736 24.9937H16.4146L14.4249 19.9685H9.55794L14.123 9.21422ZM28.2405 0V24.9907L17.7997 0H28.2405ZM10.4451 0L0 24.9907V0H10.4451Z" fill="#FA0F00"/>
</g>
</mask>
<g mask="url(#mask0_45_1167)">
<rect x="-6.96289" y="-4.90442" width="110.829" height="37.5042" fill="#ABABAB"/>
</g>
<defs>
<clipPath id="clip0_45_1167">
<rect width="96.0107" height="25.1278" fill="white"/>
</clipPath>
</defs>
</svg>
