<svg width="97" height="31" viewBox="0 0 97 31" fill="none" xmlns="http://www.w3.org/2000/svg">
<mask id="mask0_45_1163" style="mask-type:alpha" maskUnits="userSpaceOnUse" x="0" y="0" width="97" height="31">
<g clip-path="url(#clip0_45_1163)">
<path d="M14.937 0C6.68775 0 0 6.72072 0 15.0109C0 23.3014 6.68775 30.0215 14.937 30.0215C23.1872 30.0215 29.8742 23.3014 29.8742 15.0109C29.8742 6.72129 23.1872 0.000753803 14.9368 0.000753803L14.937 0ZM21.7871 21.65C21.7234 21.755 21.6397 21.8463 21.5408 21.9187C21.4419 21.9911 21.3297 22.0432 21.2108 22.072C21.0918 22.1008 20.9683 22.1058 20.8475 22.0866C20.7266 22.0674 20.6107 22.0244 20.5064 21.9602C16.9993 19.8073 12.5843 19.3198 7.38495 20.5136C7.1442 20.5687 6.89155 20.5254 6.68255 20.3933C6.47354 20.2612 6.32527 20.0511 6.27033 19.8092C6.243 19.6894 6.23943 19.5654 6.25984 19.4443C6.28025 19.3231 6.32423 19.2072 6.38927 19.1031C6.4543 18.9991 6.53912 18.9089 6.63886 18.8378C6.7386 18.7667 6.8513 18.7161 6.97053 18.6889C12.6605 17.3823 17.5411 17.9449 21.4785 20.3631C21.5829 20.4272 21.6737 20.5113 21.7457 20.6107C21.8177 20.7101 21.8695 20.8228 21.8982 20.9424C21.9268 21.0619 21.9317 21.1859 21.9126 21.3074C21.8936 21.4288 21.8508 21.5453 21.7869 21.6502M23.6153 17.5629C23.2779 18.1135 22.561 18.2875 22.0133 17.9486C17.9984 15.4686 11.878 14.7502 7.12898 16.199C6.83337 16.2889 6.51436 16.2573 6.24192 16.1111C5.96947 15.9649 5.76585 15.7161 5.6757 15.4192C5.58659 15.1222 5.61828 14.8018 5.76384 14.5282C5.90939 14.2546 6.15694 14.0502 6.45222 13.9597C11.877 12.3055 18.6208 13.1068 23.2316 15.9541C23.7792 16.2929 23.9522 17.0135 23.6151 17.563M23.7718 13.3069C18.9584 10.433 11.0154 10.1688 6.41903 11.5709C5.68095 11.7959 4.90049 11.3772 4.67696 10.6354C4.56943 10.2791 4.60709 9.89441 4.78168 9.56598C4.95627 9.23754 5.25349 8.99222 5.608 8.88395C10.8843 7.2742 19.6556 7.58514 25.1981 10.8919C25.3561 10.9858 25.4941 11.1101 25.6042 11.2577C25.7143 11.4052 25.7943 11.5732 25.8397 11.7519C25.8851 11.9306 25.895 12.1166 25.8687 12.2992C25.8425 12.4817 25.7807 12.6573 25.6868 12.8158C25.2945 13.4829 24.4347 13.7028 23.773 13.3067L23.7718 13.3069ZM40.6382 13.8575C38.0591 13.2394 37.6008 12.8058 37.6008 11.8943C37.6008 11.033 38.4069 10.4536 39.6072 10.4536C40.7702 10.4536 41.9226 10.8938 43.1319 11.7997C43.1675 11.827 43.2138 11.8379 43.2585 11.8308C43.2809 11.8274 43.3024 11.8196 43.3217 11.8077C43.341 11.7958 43.3578 11.7801 43.371 11.7616L44.6302 9.97772C44.6551 9.94236 44.6656 9.8988 44.6596 9.85591C44.6537 9.81301 44.6317 9.77402 44.5981 9.74686C43.1587 8.58657 41.5391 8.02254 39.6447 8.02254C36.8604 8.02254 34.9145 9.70183 34.9145 12.1048C34.9145 14.6814 36.5928 15.5939 39.4932 16.2982C41.9601 16.8694 42.3773 17.3478 42.3773 18.2034C42.3773 19.1517 41.5353 19.7414 40.1799 19.7414C38.6745 19.7414 37.4455 19.2307 36.0721 18.0366C36.0379 18.0076 35.9938 17.9928 35.9491 17.9955C35.9268 17.9972 35.9051 18.0032 35.8852 18.0133C35.8652 18.0235 35.8475 18.0375 35.833 18.0545L34.4204 19.743C34.392 19.7769 34.3779 19.8205 34.3809 19.8647C34.3839 19.9088 34.4038 19.9501 34.4365 19.9797C36.0346 21.4139 38.0002 22.1703 40.1227 22.1703C43.1231 22.1703 45.0618 20.5229 45.0618 17.9722C45.0671 15.8199 43.7848 14.6279 40.6437 13.86L40.6382 13.8575ZM51.8505 11.3014C50.5502 11.3014 49.4836 11.8162 48.6024 12.8712V11.684C48.6024 11.5901 48.5274 11.5138 48.4348 11.5138H46.1249C46.0803 11.5141 46.0376 11.5321 46.0062 11.564C45.9747 11.5958 45.9572 11.6389 45.9573 11.6838V24.877C45.9573 24.9701 46.0323 25.0472 46.1249 25.0472H48.4348C48.4795 25.0469 48.5222 25.0288 48.5536 24.9969C48.585 24.965 48.6026 24.9219 48.6024 24.877V20.7128C49.4836 21.7041 50.5502 22.1899 51.8503 22.1899C54.2674 22.1899 56.7146 20.3205 56.7146 16.7463C56.7182 13.1714 54.2708 11.3012 51.8522 11.3012L51.8505 11.3014ZM54.0284 16.7463C54.0284 18.5654 52.9135 19.8363 51.3153 19.8363C49.7367 19.8363 48.5452 18.5081 48.5452 16.7463C48.5452 14.9843 49.7367 13.6563 51.3153 13.6563C52.8867 13.6563 54.0284 14.9555 54.0284 16.7463ZM62.9842 11.3012C59.8717 11.3012 57.4334 13.7096 57.4334 16.7851C57.4334 19.8273 59.8556 22.2095 62.9467 22.2095C66.0698 22.2095 68.5153 19.8094 68.5153 16.7461C68.5153 13.6932 66.086 11.3018 62.9842 11.3018V11.3012ZM62.9842 19.854C61.3289 19.854 60.0804 18.5168 60.0804 16.7452C60.0804 14.9654 61.2862 13.6738 62.9467 13.6738C64.6126 13.6738 65.8682 15.0105 65.8682 16.784C65.8682 18.5635 64.6553 19.854 62.9842 19.854ZM75.1612 11.5136H72.6196V8.90242C72.6196 8.80876 72.5445 8.73243 72.4519 8.73243H70.1422C70.0974 8.73253 70.0543 8.75046 70.0226 8.78231C69.9908 8.81415 69.9729 8.85733 69.9727 8.90242V11.5134H68.8633C68.8187 11.5137 68.776 11.5318 68.7446 11.5636C68.7132 11.5955 68.6956 11.6385 68.6957 11.6834V13.6779C68.6955 13.7228 68.7131 13.7659 68.7445 13.7978C68.7759 13.8297 68.8187 13.8478 68.8633 13.8481H69.9727V19.0098C69.9727 21.0944 71.0056 22.152 73.0443 22.152C73.8718 22.152 74.5585 21.9798 75.206 21.6106C75.2322 21.5962 75.254 21.5749 75.2691 21.549C75.2842 21.5231 75.292 21.4936 75.2917 21.4636V19.5635C75.2915 19.5347 75.2841 19.5065 75.27 19.4814C75.256 19.4564 75.2358 19.4353 75.2115 19.4202C75.1872 19.4045 75.1592 19.3955 75.1303 19.3942C75.1015 19.3929 75.0728 19.3994 75.0472 19.4129C74.6032 19.6371 74.1734 19.741 73.6916 19.741C72.9515 19.741 72.6197 19.4021 72.6197 18.6457V13.8492H75.1614C75.2061 13.849 75.2488 13.8309 75.2802 13.799C75.3116 13.7671 75.3292 13.724 75.329 13.6791V11.6845C75.3298 11.6623 75.3261 11.6401 75.3181 11.6193C75.31 11.5986 75.2979 11.5797 75.2824 11.5638C75.2669 11.5478 75.2484 11.5353 75.2279 11.5268C75.2074 11.5183 75.1854 11.5141 75.1633 11.5143L75.1612 11.5136ZM84.0154 11.5238V11.203C84.0154 10.2596 84.3756 9.83902 85.1818 9.83902C85.6637 9.83902 86.0506 9.93513 86.4841 10.0802C86.5095 10.0888 86.5366 10.0911 86.563 10.0871C86.5895 10.083 86.6146 10.0726 86.6363 10.0568C86.6579 10.0409 86.6755 10.0201 86.6875 9.99609C86.6995 9.97204 86.7057 9.94545 86.7054 9.91854L86.7052 7.96299C86.7057 7.92645 86.6943 7.89075 86.6727 7.86133C86.6511 7.83191 86.6206 7.81036 86.5857 7.79998C86.1291 7.66316 85.5441 7.52296 84.6665 7.52296C82.5349 7.52296 81.4059 8.72998 81.4059 11.0123V11.5034H80.2965C80.2516 11.5035 80.2086 11.5214 80.1768 11.5533C80.1451 11.5851 80.1272 11.6283 80.127 11.6734V13.6781C80.127 13.7718 80.2038 13.8483 80.2965 13.8483H81.4059V21.8079C81.4059 21.9029 81.4827 21.9783 81.5754 21.9783H83.8834C83.9779 21.9783 84.0529 21.9029 84.0529 21.8079V13.8487H86.2094L89.5128 21.8077C89.1381 22.6431 88.7689 22.8097 88.2657 22.8097C87.8592 22.8097 87.4294 22.688 86.9925 22.446C86.951 22.4249 86.9032 22.4204 86.8586 22.4334C86.8366 22.4409 86.8163 22.4529 86.7991 22.4686C86.7819 22.4843 86.7681 22.5034 86.7586 22.5248L85.9757 24.251C85.9577 24.2902 85.9552 24.3348 85.9688 24.3758C85.9824 24.4168 86.011 24.451 86.0489 24.4715C86.8657 24.916 87.6023 25.106 88.5138 25.106C90.219 25.106 91.1626 24.3066 91.992 22.1592L95.9982 11.7559C96.0086 11.7302 96.0124 11.7023 96.0093 11.6747C96.0062 11.6471 95.9962 11.6207 95.9804 11.598C95.9653 11.5753 95.9448 11.5566 95.9209 11.5437C95.8969 11.5309 95.8701 11.5241 95.8429 11.5241H93.4385C93.4033 11.5239 93.3688 11.5348 93.34 11.5552C93.3112 11.5757 93.2895 11.6047 93.278 11.6382L90.8147 18.7068L88.1178 11.6334C88.1057 11.6014 88.0842 11.5739 88.0562 11.5543C88.0282 11.5348 87.9949 11.5243 87.9608 11.5241H84.0154V11.5238ZM78.882 11.5136H76.5721C76.5273 11.5138 76.4844 11.5318 76.4527 11.5636C76.421 11.5954 76.403 11.6385 76.4028 11.6836V21.8079C76.4028 21.9029 76.4795 21.9783 76.5721 21.9783H78.882C78.9748 21.9783 79.0515 21.9029 79.0515 21.8079V11.6843C79.0516 11.6619 79.0473 11.6398 79.0388 11.6191C79.0303 11.5984 79.0178 11.5796 79.002 11.5638C78.9863 11.5479 78.9676 11.5354 78.947 11.5269C78.9264 11.5184 78.9043 11.5141 78.882 11.5142V11.5136ZM77.7404 6.90333C76.8253 6.90333 76.0834 7.64771 76.0834 8.56697C76.0834 8.78565 76.1263 9.00219 76.2095 9.20423C76.2928 9.40627 76.4148 9.58984 76.5687 9.74447C76.7226 9.8991 76.9052 10.0218 77.1063 10.1054C77.3073 10.1891 77.5228 10.2322 77.7404 10.2321C78.6555 10.2321 79.3956 9.48699 79.3956 8.56697C79.3955 8.12581 79.2211 7.70274 78.9107 7.39078C78.6003 7.07881 78.1794 6.90348 77.7404 6.90333Z" fill="#1ED760"/>
</g>
</mask>
<g mask="url(#mask0_45_1163)">
<rect x="-6.79492" width="117.24" height="39.6739" fill="#ABABAB"/>
</g>
<defs>
<clipPath id="clip0_45_1163">
<rect width="96.0107" height="30.1521" fill="white"/>
</clipPath>
</defs>
</svg>
