<svg width="97" height="25" viewBox="0 0 97 25" fill="none" xmlns="http://www.w3.org/2000/svg">
<mask id="mask0_45_1147" style="mask-type:alpha" maskUnits="userSpaceOnUse" x="0" y="0" width="97" height="25">
<g clip-path="url(#clip0_45_1147)">
<path d="M30.6772 19.0154L31.8749 16.2466C33.1692 17.208 34.8884 17.708 36.5885 17.708C37.8441 17.708 38.6362 17.2272 38.6362 16.4967C38.6169 14.4587 31.1215 16.0544 31.0635 10.94C31.0442 8.34447 33.3625 6.34485 36.6464 6.34485C38.5976 6.34485 40.5487 6.82544 41.9396 7.92137L40.8191 10.7478C39.5442 9.94021 37.9602 9.3635 36.4533 9.3635C35.4294 9.3635 34.7534 9.84409 34.7534 10.4594C34.7727 12.459 42.326 11.3631 42.4033 16.2466C42.4033 18.9 40.1431 20.7651 36.8977 20.7651C34.5214 20.7651 32.3385 20.2074 30.6772 19.0154ZM76.6349 15.2468L79.9382 17.0734C78.7019 19.2845 76.3452 20.7651 73.6212 20.7651C69.6223 20.7651 66.3769 17.535 66.3769 13.555C66.3769 9.57496 69.6223 6.34485 73.6212 6.34485C76.3258 6.34485 78.7019 7.84447 79.9382 10.0365L76.6349 11.8629C76.0359 10.8247 74.9155 10.1134 73.6212 10.1134C71.7087 10.1134 70.1633 11.6515 70.1633 13.555C70.1633 15.4585 71.7087 16.9965 73.6212 16.9965C74.9155 16.9965 76.0359 16.2851 76.6347 15.2468M44.0646 0.365234H48.1986V20.4958H44.0646V0.365234ZM81.5609 0.365234H85.695V12.1897L90.3699 6.63321H95.4312L89.6552 13.3241L95.895 20.4958H90.6018L85.695 14.4587V20.4958H81.5609V0.365234ZM60.485 15.2855V11.8821C59.8861 10.8823 58.6497 10.1134 57.2589 10.1134C55.3462 10.1134 53.801 11.6515 53.801 13.555C53.801 15.4585 55.3462 16.9965 57.2589 16.9965C58.6497 16.9965 59.8861 16.266 60.485 15.2855ZM60.485 6.63321H64.6191V20.4765H60.485V18.8424C59.8088 19.9767 58.1281 20.7651 56.3702 20.7651C52.7383 20.7651 49.8794 17.535 49.8794 13.5357C49.8794 9.53651 52.7383 6.34485 56.3702 6.34485C58.1281 6.34485 59.8088 7.1332 60.485 8.26758V6.63321Z" fill="black"/>
<path d="M5.11954 15.2661C5.11954 16.6696 3.97979 17.8041 2.56944 17.8041C2.23448 17.8045 1.90274 17.739 1.59321 17.6116C1.28369 17.4842 1.00245 17.2972 0.765603 17.0615C0.528755 16.8257 0.340946 16.5458 0.212926 16.2377C0.0849056 15.9296 0.0191873 15.5995 0.0195326 15.2661C0.0195326 13.8626 1.15929 12.7282 2.56944 12.7282H5.11954V15.2661ZM6.3945 15.2661C6.3945 13.8626 7.53425 12.7282 8.94441 12.7282C10.3546 12.7282 11.4945 13.8626 11.4945 15.2661V21.611C11.4945 23.0145 10.3548 24.149 8.94441 24.149C8.60946 24.1493 8.27774 24.0839 7.96824 23.9564C7.65873 23.829 7.37752 23.642 7.14069 23.4063C6.90386 23.1705 6.71607 22.8906 6.58806 22.5825C6.46005 22.2745 6.39434 21.9443 6.39468 21.611L6.3945 15.2661Z" fill="#E01E5A"/>
<path d="M8.94419 5.07593C8.60924 5.07623 8.27752 5.01078 7.96802 4.88333C7.65851 4.75588 7.3773 4.56893 7.14047 4.33319C6.90364 4.09744 6.71585 3.81753 6.58784 3.50947C6.45984 3.2014 6.39412 2.87124 6.39447 2.53787C6.39428 1.13437 7.53403 0 8.94419 0C10.3543 0 11.4943 1.13437 11.4943 2.53787V5.07593H8.94419ZM8.94419 6.36409C10.3543 6.36409 11.4943 7.49846 11.4943 8.90196C11.4943 10.3055 10.3545 11.44 8.94419 11.44H2.54991C2.21495 11.4403 1.88321 11.3749 1.57368 11.2475C1.26415 11.12 0.982919 10.9331 0.746071 10.6973C0.509224 10.4616 0.321415 10.1817 0.193395 9.8736C0.0653743 9.56553 -0.000343997 9.23535 1.35407e-06 8.90196C1.35407e-06 7.49846 1.13975 6.36428 2.54991 6.36428L8.94419 6.36409Z" fill="#36C5F0"/>
<path d="M19.1631 8.90196C19.1631 7.49846 20.3028 6.36409 21.713 6.36409C23.1231 6.36409 24.2631 7.49846 24.2631 8.90196C24.2631 10.3055 23.1233 11.44 21.713 11.44H19.1631V8.90196ZM17.8879 8.90196C17.8879 10.3055 16.7483 11.44 15.338 11.44C15.003 11.4403 14.6713 11.3749 14.3618 11.2475C14.0522 11.12 13.771 10.9331 13.5342 10.6973C13.2973 10.4616 13.1095 10.1817 12.9815 9.8736C12.8535 9.56553 12.7877 9.23535 12.7881 8.90196V2.53787C12.7881 1.13437 13.9278 0 15.338 0C16.7482 0 17.8881 1.13437 17.8881 2.53787L17.8879 8.90196Z" fill="#2EB67D"/>
<path d="M15.338 19.0731C16.7482 19.0731 17.8881 20.2075 17.8881 21.611C17.8881 23.0145 16.7483 24.149 15.338 24.149C15.003 24.1493 14.6713 24.0839 14.3618 23.9565C14.0522 23.829 13.771 23.6421 13.5342 23.4063C13.2973 23.1706 13.1095 22.8907 12.9815 22.5826C12.8535 22.2745 12.7877 21.9443 12.7881 21.611V19.0731H15.338ZM15.338 17.804C15.003 17.8043 14.6713 17.7388 14.3618 17.6114C14.0523 17.484 13.7711 17.2971 13.5342 17.0613C13.2974 16.8256 13.1096 16.5457 12.9815 16.2377C12.8535 15.9296 12.7878 15.5995 12.7881 15.2661C12.7881 13.8626 13.9278 12.7282 15.338 12.7282H21.7325C23.1426 12.7282 24.2824 13.8626 24.2824 15.2661C24.2824 16.6696 23.1426 17.8041 21.7323 17.8041L15.338 17.804Z" fill="#ECB22E"/>
</g>
</mask>
<g mask="url(#mask0_45_1147)">
<rect x="-3.20801" y="-4.07483" width="102.426" height="34.6609" fill="#ABABAB"/>
</g>
<defs>
<clipPath id="clip0_45_1147">
<rect width="96.0107" height="24.2626" fill="white"/>
</clipPath>
</defs>
</svg>
