<svg width="97" height="30" viewBox="0 0 97 30" fill="none" xmlns="http://www.w3.org/2000/svg">
<path d="M4.37793 20.0864V6.31821H6.79303L11.4581 13.7699L16.1232 6.31821H18.5176V20.0864H16.1232V10.2815L11.4581 17.6713L6.79303 10.2815V20.0864H4.37793Z" fill="#1E1E1E"/>
<path d="M29.0495 14.6782C29.0495 13.7287 28.7193 12.9305 28.0587 12.2837C27.3982 11.6232 26.5931 11.2929 25.6436 11.2929C24.6941 11.2929 23.8891 11.6163 23.2285 12.2631C22.5817 12.9099 22.2583 13.7149 22.2583 14.6782C22.2583 15.6415 22.5817 16.4534 23.2285 17.1139C23.8753 17.7745 24.6803 18.1047 25.6436 18.1047C26.6069 18.1047 27.4119 17.7745 28.0587 17.1139C28.7193 16.4534 29.0495 15.6415 29.0495 14.6782ZM19.9464 14.6782C19.9464 13.1232 20.4556 11.8227 21.4739 10.7769C22.506 9.731 23.7102 9.20808 25.0863 9.20808C25.9945 9.20808 26.7927 9.42138 27.4807 9.84798C28.1688 10.2608 28.6917 10.8319 29.0495 11.5613V9.29064H31.3408V20.0864H29.0495V17.8158C28.7055 18.5589 28.1826 19.1437 27.4807 19.5703C26.7927 19.9832 25.9945 20.1896 25.0863 20.1896C23.6964 20.1896 22.4923 19.6666 21.4739 18.6208C20.4556 17.5612 19.9464 16.247 19.9464 14.6782Z" fill="#1E1E1E"/>
<path d="M33.2239 9.29064H35.5358V11.5613C35.8798 10.8319 36.4096 10.2608 37.1252 9.84798C37.8408 9.42138 38.6183 9.20808 39.4577 9.20808C40.6274 9.20808 41.5426 9.60715 42.2031 10.4053C42.8774 11.1897 43.2146 12.2562 43.2146 13.6048V20.0864H40.9027V13.7493C40.9027 13.0062 40.6962 12.3938 40.2834 11.9122C39.8843 11.4305 39.327 11.1897 38.6114 11.1897C37.7445 11.1759 37.0151 11.4856 36.4234 12.1186C35.8316 12.7378 35.5358 13.481 35.5358 14.3479V20.0864H33.2239V9.29064Z" fill="#1E1E1E"/>
<path d="M53.5231 14.6782C53.5231 13.7287 53.1928 12.9305 52.5323 12.2837C51.8717 11.6232 51.0667 11.2929 50.1172 11.2929C49.1677 11.2929 48.3626 11.6163 47.7021 12.2631C47.0553 12.9099 46.7319 13.7149 46.7319 14.6782C46.7319 15.6415 47.0553 16.4534 47.7021 17.1139C48.3489 17.7745 49.1539 18.1047 50.1172 18.1047C51.0805 18.1047 51.8855 17.7745 52.5323 17.1139C53.1928 16.4534 53.5231 15.6415 53.5231 14.6782ZM44.42 14.6782C44.42 13.1232 44.9292 11.8227 45.9475 10.7769C46.9796 9.731 48.1837 9.20808 49.5599 9.20808C50.4681 9.20808 51.2663 9.42138 51.9543 9.84798C52.6424 10.2608 53.1653 10.8319 53.5231 11.5613V9.29064H55.8144V20.0864H53.5231V17.8158C53.1791 18.5589 52.6561 19.1437 51.9543 19.5703C51.2663 19.9832 50.4681 20.1896 49.5599 20.1896C48.17 20.1896 46.9659 19.6666 45.9475 18.6208C44.9292 17.5612 44.42 16.247 44.42 14.6782Z" fill="#1E1E1E"/>
<path d="M66.2432 14.6782C66.2432 13.7149 65.9198 12.9167 65.273 12.2837C64.6262 11.6369 63.8281 11.3136 62.8786 11.3136C61.929 11.3136 61.1309 11.6369 60.4841 12.2837C59.8373 12.9167 59.5139 13.7149 59.5139 14.6782C59.5139 15.6415 59.8373 16.4534 60.4841 17.1139C61.1309 17.7745 61.929 18.1047 62.8786 18.1047C63.8143 18.1047 64.6056 17.7745 65.2524 17.1139C65.9129 16.4534 66.2432 15.6415 66.2432 14.6782ZM62.8786 9.20808H68.6583V11.2516H66.5528C67.1583 11.5544 67.6468 12.0223 68.0184 12.6553C68.39 13.2883 68.5757 13.9626 68.5757 14.6782C68.5757 16.2332 68.0184 17.5405 66.9037 18.6001C65.7891 19.6598 64.4473 20.1896 62.8786 20.1896C62.2731 20.1896 61.702 20.1139 61.1653 19.9625C61.069 19.9212 60.9245 19.9006 60.7318 19.9006C60.4291 19.9006 60.1538 19.9832 59.9061 20.1483C59.6722 20.3134 59.5139 20.5336 59.4314 20.8088C59.3213 21.1391 59.3213 21.4418 59.4314 21.7171C59.5552 22.0061 59.7754 22.2331 60.0919 22.3983C60.7524 22.7148 61.6813 22.873 62.8786 22.873C64.6813 22.873 66.2982 22.3845 67.7294 21.4074L68.6583 23.4097C66.8969 24.4831 64.9703 25.0198 62.8786 25.0198C61.5437 25.0198 60.4359 24.834 59.5552 24.4625C58.9084 24.1872 58.413 23.7675 58.069 23.2033C57.725 22.6528 57.5942 22.068 57.6768 21.4487C57.7181 20.912 57.9039 20.4373 58.2341 20.0244C58.5644 19.5978 58.991 19.2951 59.5139 19.1162C58.7846 18.6208 58.2135 17.9878 57.8007 17.2171C57.3878 16.4465 57.1814 15.6002 57.1814 14.6782C57.1814 13.1232 57.7318 11.8227 58.8327 10.7769C59.9336 9.731 61.2823 9.20808 62.8786 9.20808Z" fill="#1E1E1E"/>
<path d="M69.5377 7.47415C69.5377 6.84114 69.7579 6.33197 70.1982 5.94665C70.6386 5.54758 71.189 5.34804 71.8496 5.34804C72.7028 5.34804 73.3289 5.58198 73.728 6.04986C74.1271 6.51775 74.3266 7.137 74.3266 7.90764C74.3266 8.65074 74.1821 9.35945 73.8931 10.0338C73.6041 10.7081 73.1844 11.3067 72.634 11.8296C72.0973 12.3388 71.478 12.7103 70.7762 12.9443L69.8886 11.4374C70.9757 10.9007 71.6638 10.2815 71.9528 9.57963C71.2785 9.57963 70.7074 9.39385 70.2395 9.0223C69.7716 8.63698 69.5377 8.12093 69.5377 7.47415Z" fill="#FF6613"/>
<path d="M75.2481 20.0657V9.27H79.5622V20.0657H75.2481ZM77.3742 4.37787C78.0622 4.37787 78.6265 4.57741 79.0668 4.97648C79.5209 5.3618 79.748 5.86409 79.748 6.48334C79.748 7.1026 79.5141 7.61177 79.0462 8.01085C78.5921 8.40992 78.0347 8.60946 77.3742 8.60946C76.7274 8.60946 76.177 8.40992 75.7228 8.01085C75.2687 7.61177 75.0416 7.1026 75.0416 6.48334C75.0416 5.86409 75.2618 5.3618 75.7022 4.97648C76.1563 4.57741 76.7136 4.37787 77.3742 4.37787Z" fill="#FF6613"/>
<path d="M85.5842 6.35949V9.27H88.0406V12.614H85.5842V15.8135C85.5842 16.3089 85.8594 16.5566 86.4099 16.5566C86.7126 16.5566 87.1323 16.4534 87.669 16.247L88.4328 19.6322C87.3594 20.0313 86.3066 20.2309 85.2746 20.2309C84.4351 20.2309 83.7126 20.0726 83.1071 19.7561C82.5154 19.4396 82.0613 18.9786 81.7448 18.3731C81.4283 17.7538 81.27 17.0245 81.27 16.185V12.614H80.1141V9.27H81.27C81.4352 9.06358 81.6141 8.82964 81.8067 8.56818C82.0131 8.29295 82.192 8.04525 82.3434 7.82507C82.5085 7.60489 82.6943 7.35718 82.9007 7.08196C83.1071 6.80673 83.2929 6.56591 83.4581 6.35949H85.5842Z" fill="#FF6613"/>
</svg>
